<?xml version="1.0" encoding="UTF-8" standalone="no"?>
<!-- Created with Inkscape (http://www.inkscape.org/) -->

<svg
   width="512"
   height="512"
   viewBox="0 0 512 512"
   version="1.1"
   id="svg1"
   xml:space="preserve"
   inkscape:export-filename="pnp-logo.svg"
   inkscape:export-xdpi="96"
   inkscape:export-ydpi="96"
   inkscape:version="1.4 (86a8ad7, 2024-10-11)"
   sodipodi:docname="pnp-logo.svg"
   xmlns:inkscape="http://www.inkscape.org/namespaces/inkscape"
   xmlns:sodipodi="http://sodipodi.sourceforge.net/DTD/sodipodi-0.dtd"
   xmlns="http://www.w3.org/2000/svg"
   xmlns:svg="http://www.w3.org/2000/svg"><sodipodi:namedview
     id="namedview1"
     pagecolor="#ffffff"
     bordercolor="#000000"
     borderopacity="0.25"
     inkscape:showpageshadow="2"
     inkscape:pageopacity="0.0"
     inkscape:pagecheckerboard="0"
     inkscape:deskcolor="#d1d1d1"
     inkscape:document-units="px"
     showguides="true"
     inkscape:zoom="1"
     inkscape:cx="179"
     inkscape:cy="256.5"
     inkscape:window-width="1366"
     inkscape:window-height="705"
     inkscape:window-x="-8"
     inkscape:window-y="-8"
     inkscape:window-maximized="1"
     inkscape:current-layer="layer1" /><defs
     id="defs1" /><g
     inkscape:groupmode="layer"
     id="layer1"
     inkscape:label="Texto 1"
     style="fill:#ffffff"><circle
       style="fill:#ffffff;stroke-width:1.51032"
       id="path3"
       cx="256"
       cy="256"
       r="256" /></g><g
     inkscape:groupmode="layer"
     id="layer2"
     inkscape:label="Texto"
     style="display:inline"
     transform="matrix(0.85787329,0,0,0.85787329,48.113359,36.384439)"><g
       id="g4"
       transform="translate(2.3313466)"><path
         style="font-weight:bold;font-size:600px;font-family:Verdana;-inkscape-font-specification:'Verdana Bold';display:inline"
         d="m 445.28789,175.58007 c 0,19.53125 -3.41797,38.67188 -10.25391,57.42188 -6.83594,18.55469 -16.60157,34.17969 -29.29688,46.875 -17.38281,17.1875 -36.8164,30.17578 -58.30078,38.96484 -21.28906,8.78906 -47.85156,13.18359 -79.6875,13.18359 h -70.01953 v 142.08985 h -112.5 V 37.884768 h 185.15625 c 27.73437,0 51.07422,2.441406 70.01953,7.324219 19.14063,4.6875 36.03516,11.816406 50.6836,21.386719 17.57812,11.523437 30.95703,26.269532 40.13672,44.238284 9.375,17.96874 14.0625,39.55077 14.0625,64.74608 z"
         id="text1"
         aria-label="P"
         sodipodi:nodetypes="scccsccccscccs" /><g
         id="g3"
         transform="matrix(2.4692957,0,0,1.8438644,970.27384,-236.82607)"><path
           style="fill:#ffffff"
           d="m -324.64915,181.33036 0.0818,41.33873 19.3941,-0.0818 0.0794,-41.2264 z"
           id="path1"
           sodipodi:nodetypes="ccccc" /><path
           style="display:inline;fill:#ffffff"
           d="m -265.93152,181.33036 0.0818,41.33873 19.3941,-0.0818 0.0794,-41.2264 z"
           id="path1-4"
           sodipodi:nodetypes="ccccc" /><path
           style="fill:#ffffff"
           d="m -286.49743,278.66698 20.56591,10e-4 c -1.80346,-16.2019 -3.24865,-31.99355 -20.56591,-31.99355 -14.43869,0 -17.26596,15.79165 -18.59642,31.99466 z"
           id="path2"
           sodipodi:nodetypes="ccscc" /></g></g></g></svg>
